<svg xmlns="http://www.w3.org/2000/svg" viewBox="0 0 100 100" width="100" height="100">
  <defs>
    <linearGradient id="modernCart" x1="0%" y1="0%" x2="100%" y2="100%">
      <stop offset="0%" style="stop-color:oklch(0.723 0.219 149.579);stop-opacity:1" />
      <stop offset="100%" style="stop-color:oklch(0.623 0.189 149.579);stop-opacity:1" />
    </linearGradient>
    <filter id="shadow" x="-20%" y="-20%" width="140%" height="140%">
      <feDropShadow dx="2" dy="2" stdDeviation="3" flood-color="#00000040"/>
    </filter>
  </defs>
  
  <!-- المقبض العلوي -->
  <path d="M20 25 L25 25 L30 50 L75 50" 
        stroke="url(#modernCart)" 
        stroke-width="4" 
        stroke-linecap="round" 
        fill="none"/>
  
  <!-- جسم العربة المنحني -->
  <path d="M30 50 
           L70 50 
           C75 50, 80 55, 80 60
           L80 65
           C80 70, 75 75, 70 75
           L40 75
           C35 75, 30 70, 30 65
           Z" 
        fill="url(#modernCart)" 
        filter="url(#shadow)"
        stroke="oklch(0.523 0.189 149.579)" 
        stroke-width="1.5"/>
  
  <!-- خطوط التصميم داخل العربة -->
  <line x1="35" y1="55" x2="75" y2="55" stroke="#ffffff40" stroke-width="1"/>
  <line x1="35" y1="60" x2="75" y2="60" stroke="#ffffff40" stroke-width="1"/>
  <line x1="35" y1="65" x2="75" y2="65" stroke="#ffffff40" stroke-width="1"/>
  
  <!-- العجل الأمامي بتصميم حديث -->
  <circle cx="40" cy="82" r="8" fill="#333333" filter="url(#shadow)"/>
  <circle cx="40" cy="82" r="5" fill="#555555"/>
  <circle cx="40" cy="82" r="2" fill="#777777"/>
  
  <!-- العجل الخلفي -->
  <circle cx="65" cy="82" r="8" fill="#333333" filter="url(#shadow)"/>
  <circle cx="65" cy="82" r="5" fill="#555555"/>
  <circle cx="65" cy="82" r="2" fill="#777777"/>
  
  <!-- عناصر ملونة في العربة -->
  <circle cx="45" cy="60" r="3" fill="#ff6b6b" opacity="0.9"/>
  <circle cx="55" cy="57" r="2.5" fill="#4ecdc4" opacity="0.9"/>
  <circle cx="63" cy="62" r="2.8" fill="#ffe66d" opacity="0.9"/>
  <circle cx="52" cy="65" r="2.2" fill="#a8e6cf" opacity="0.9"/>
</svg>